<svg
              width="39%"
              height="13%"
              viewBox="0 0 394 134"
              xmlns="http://www.w3.org/2000/svg"
              id="logo"
              fill="none"
            >
              <mask
                id="path-1-outside-1"
                maskUnits="userSpaceOnUse"
                x="-0.159973"
                y="0.320007"
                width="394"
                height="133"
                fill="black"
              >
                <rect
                  fill="white"
                  x="-0.159973"
                  y="0.320007"
                  width="394"
                  height="133"
                />
                <path d="M34.76 97.84C29.24 97.84 24.28 96.88 19.88 94.96C15.56 92.96 12.16 90.24 9.68003 86.8C7.20003 83.28 5.92003 79.24 5.84003 74.68H17.48C17.88 78.6 19.48 81.92 22.28 84.64C25.16 87.28 29.32 88.6 34.76 88.6C39.96 88.6 44.04 87.32 47 84.76C50.04 82.12 51.56 78.76 51.56 74.68C51.56 71.48 50.68 68.88 48.92 66.88C47.16 64.88 44.96 63.36 42.32 62.32C39.68 61.28 36.12 60.16 31.64 58.96C26.12 57.52 21.68 56.08 18.32 54.64C15.04 53.2 12.2 50.96 9.80003 47.92C7.48003 44.8 6.32003 40.64 6.32003 35.44C6.32003 30.88 7.48003 26.84 9.80003 23.32C12.12 19.8 15.36 17.08 19.52 15.16C23.76 13.24 28.6 12.28 34.04 12.28C41.88 12.28 48.28 14.24 53.24 18.16C58.28 22.08 61.12 27.28 61.76 33.76H49.76C49.36 30.56 47.68 27.76 44.72 25.36C41.76 22.88 37.84 21.64 32.96 21.64C28.4 21.64 24.68 22.84 21.8 25.24C18.92 27.56 17.48 30.84 17.48 35.08C17.48 38.12 18.32 40.6 20 42.52C21.76 44.44 23.88 45.92 26.36 46.96C28.92 47.92 32.48 49.04 37.04 50.32C42.56 51.84 47 53.36 50.36 54.88C53.72 56.32 56.6 58.6 59 61.72C61.4 64.76 62.6 68.92 62.6 74.2C62.6 78.28 61.52 82.12 59.36 85.72C57.2 89.32 54 92.24 49.76 94.48C45.52 96.72 40.52 97.84 34.76 97.84Z" />
                <path d="M89.5897 43.36C91.7497 39.6 94.9497 36.48 99.1897 34C103.51 31.44 108.51 30.16 114.19 30.16C120.03 30.16 125.31 31.56 130.03 34.36C134.83 37.16 138.59 41.12 141.31 46.24C144.03 51.28 145.39 57.16 145.39 63.88C145.39 70.52 144.03 76.44 141.31 81.64C138.59 86.84 134.83 90.88 130.03 93.76C125.31 96.64 120.03 98.08 114.19 98.08C108.59 98.08 103.63 96.84 99.3097 94.36C95.0697 91.8 91.8297 88.64 89.5897 84.88V128.2H78.6697V31.24H89.5897V43.36ZM134.23 63.88C134.23 58.92 133.23 54.6 131.23 50.92C129.23 47.24 126.51 44.44 123.07 42.52C119.71 40.6 115.99 39.64 111.91 39.64C107.91 39.64 104.19 40.64 100.75 42.64C97.3897 44.56 94.6697 47.4 92.5897 51.16C90.5897 54.84 89.5897 59.12 89.5897 64C89.5897 68.96 90.5897 73.32 92.5897 77.08C94.6697 80.76 97.3897 83.6 100.75 85.6C104.19 87.52 107.91 88.48 111.91 88.48C115.99 88.48 119.71 87.52 123.07 85.6C126.51 83.6 129.23 80.76 131.23 77.08C133.23 73.32 134.23 68.92 134.23 63.88Z" />
                <path d="M216.403 31.24L176.803 127.96H165.523L178.483 96.28L151.963 31.24H164.083L184.723 84.52L205.123 31.24H216.403Z" />
                <path d="M254.141 40.24H240.341V97H229.421V40.24H220.901V31.24H229.421V26.56C229.421 19.2 231.301 13.84 235.061 10.48C238.901 7.04001 245.021 5.32001 253.421 5.32001V14.44C248.621 14.44 245.221 15.4 243.221 17.32C241.301 19.16 240.341 22.24 240.341 26.56V31.24H254.141V40.24Z" />
                <path d="M262.793 63.88C262.793 57.16 264.153 51.28 266.873 46.24C269.593 41.12 273.313 37.16 278.033 34.36C282.833 31.56 288.153 30.16 293.993 30.16C299.753 30.16 304.753 31.4 308.993 33.88C313.233 36.36 316.393 39.48 318.473 43.24V31.24H329.513V97H318.473V84.76C316.313 88.6 313.073 91.8 308.753 94.36C304.513 96.84 299.553 98.08 293.873 98.08C288.033 98.08 282.753 96.64 278.033 93.76C273.313 90.88 269.593 86.84 266.873 81.64C264.153 76.44 262.793 70.52 262.793 63.88ZM318.473 64C318.473 59.04 317.473 54.72 315.473 51.04C313.473 47.36 310.753 44.56 307.313 42.64C303.953 40.64 300.233 39.64 296.153 39.64C292.073 39.64 288.353 40.6 284.993 42.52C281.633 44.44 278.953 47.24 276.953 50.92C274.953 54.6 273.953 58.92 273.953 63.88C273.953 68.92 274.953 73.32 276.953 77.08C278.953 80.76 281.633 83.6 284.993 85.6C288.353 87.52 292.073 88.48 296.153 88.48C300.233 88.48 303.953 87.52 307.313 85.6C310.753 83.6 313.473 80.76 315.473 77.08C317.473 73.32 318.473 68.96 318.473 64Z" />
                <path d="M358.887 8.20001V97H347.967V8.20001H358.887Z" />
                <path d="M388.418 8.20001V97H377.498V8.20001H388.418Z" />
              </mask>
              <path
                className="letter"
                d="M34.76 97.84C29.24 97.84 24.28 96.88 19.88 94.96C15.56 92.96 12.16 90.24 9.68003 86.8C7.20003 83.28 5.92003 79.24 5.84003 74.68H17.48C17.88 78.6 19.48 81.92 22.28 84.64C25.16 87.28 29.32 88.6 34.76 88.6C39.96 88.6 44.04 87.32 47 84.76C50.04 82.12 51.56 78.76 51.56 74.68C51.56 71.48 50.68 68.88 48.92 66.88C47.16 64.88 44.96 63.36 42.32 62.32C39.68 61.28 36.12 60.16 31.64 58.96C26.12 57.52 21.68 56.08 18.32 54.64C15.04 53.2 12.2 50.96 9.80003 47.92C7.48003 44.8 6.32003 40.64 6.32003 35.44C6.32003 30.88 7.48003 26.84 9.80003 23.32C12.12 19.8 15.36 17.08 19.52 15.16C23.76 13.24 28.6 12.28 34.04 12.28C41.88 12.28 48.28 14.24 53.24 18.16C58.28 22.08 61.12 27.28 61.76 33.76H49.76C49.36 30.56 47.68 27.76 44.72 25.36C41.76 22.88 37.84 21.64 32.96 21.64C28.4 21.64 24.68 22.84 21.8 25.24C18.92 27.56 17.48 30.84 17.48 35.08C17.48 38.12 18.32 40.6 20 42.52C21.76 44.44 23.88 45.92 26.36 46.96C28.92 47.92 32.48 49.04 37.04 50.32C42.56 51.84 47 53.36 50.36 54.88C53.72 56.32 56.6 58.6 59 61.72C61.4 64.76 62.6 68.92 62.6 74.2C62.6 78.28 61.52 82.12 59.36 85.72C57.2 89.32 54 92.24 49.76 94.48C45.52 96.72 40.52 97.84 34.76 97.84Z"
                stroke="white"
                strokeWidth="10"
                mask="url(#path-1-outside-1)"
                strokeDasharray="411px"
                strokeDashoffset="411px"
              />
              <path
                className="letter"
                d="M89.5897 43.36C91.7497 39.6 94.9497 36.48 99.1897 34C103.51 31.44 108.51 30.16 114.19 30.16C120.03 30.16 125.31 31.56 130.03 34.36C134.83 37.16 138.59 41.12 141.31 46.24C144.03 51.28 145.39 57.16 145.39 63.88C145.39 70.52 144.03 76.44 141.31 81.64C138.59 86.84 134.83 90.88 130.03 93.76C125.31 96.64 120.03 98.08 114.19 98.08C108.59 98.08 103.63 96.84 99.3097 94.36C95.0697 91.8 91.8297 88.64 89.5897 84.88V128.2H78.6697V31.24H89.5897V43.36ZM134.23 63.88C134.23 58.92 133.23 54.6 131.23 50.92C129.23 47.24 126.51 44.44 123.07 42.52C119.71 40.6 115.99 39.64 111.91 39.64C107.91 39.64 104.19 40.64 100.75 42.64C97.3897 44.56 94.6697 47.4 92.5897 51.16C90.5897 54.84 89.5897 59.12 89.5897 64C89.5897 68.96 90.5897 73.32 92.5897 77.08C94.6697 80.76 97.3897 83.6 100.75 85.6C104.19 87.52 107.91 88.48 111.91 88.48C115.99 88.48 119.71 87.52 123.07 85.6C126.51 83.6 129.23 80.76 131.23 77.08C133.23 73.32 134.23 68.92 134.23 63.88Z"
                stroke="white"
                strokeWidth="10"
                mask="url(#path-1-outside-1)"
                strokeDasharray="484px"
                strokeDashoffset="484px"
              />
              <path
              className="letter"
                d="M216.403 31.24L176.803 127.96H165.523L178.483 96.28L151.963 31.24H164.083L184.723 84.52L205.123 31.24H216.403Z"
                stroke="white"
                strokeWidth="10"
                mask="url(#path-1-outside-1)"
                strokeDasharray="358px"
                strokeDashoffset="358px"
              />
              <path
                className="letter"
                d="M254.141 40.24H240.341V97H229.421V40.24H220.901V31.24H229.421V26.56C229.421 19.2 231.301 13.84 235.061 10.48C238.901 7.04001 245.021 5.32001 253.421 5.32001V14.44C248.621 14.44 245.221 15.4 243.221 17.32C241.301 19.16 240.341 22.24 240.341 26.56V31.24H254.141V40.24Z"
                stroke="white"
                strokeWidth="10"
                mask="url(#path-1-outside-1)"
                strokeDasharray="263.39px"
                strokeDashoffset="263.39px"
              />
              <path
                className="letter"
                d="M262.793 63.88C262.793 57.16 264.153 51.28 266.873 46.24C269.593 41.12 273.313 37.16 278.033 34.36C282.833 31.56 288.153 30.16 293.993 30.16C299.753 30.16 304.753 31.4 308.993 33.88C313.233 36.36 316.393 39.48 318.473 43.24V31.24H329.513V97H318.473V84.76C316.313 88.6 313.073 91.8 308.753 94.36C304.513 96.84 299.553 98.08 293.873 98.08C288.033 98.08 282.753 96.64 278.033 93.76C273.313 90.88 269.593 86.84 266.873 81.64C264.153 76.44 262.793 70.52 262.793 63.88ZM318.473 64C318.473 59.04 317.473 54.72 315.473 51.04C313.473 47.36 310.753 44.56 307.313 42.64C303.953 40.64 300.233 39.64 296.153 39.64C292.073 39.64 288.353 40.6 284.993 42.52C281.633 44.44 278.953 47.24 276.953 50.92C274.953 54.6 273.953 58.92 273.953 63.88C273.953 68.92 274.953 73.32 276.953 77.08C278.953 80.76 281.633 83.6 284.993 85.6C288.353 87.52 292.073 88.48 296.153 88.48C300.233 88.48 303.953 87.52 307.313 85.6C310.753 83.6 313.473 80.76 315.473 77.08C317.473 73.32 318.473 68.96 318.473 64Z"
                stroke="white"
                strokeWidth="10"
                mask="url(#path-1-outside-1)"
                strokeDasharray="422px"
                strokeDashoffset="422px"
              />
              <path
                className="letter"
                d="M358.887 8.20001V97H347.967V8.20001H358.887Z"
                stroke="white"
                strokeWidth="10"
                mask="url(#path-1-outside-1)"
                strokeDasharray="200px"
                strokeDashoffset="200px"
              />
              <path
                className="letter"
                d="M388.418 8.20001V97H377.498V8.20001H388.418Z"
                stroke="white"
                strokeWidth="10"
                mask="url(#path-1-outside-1)"
                strokeDasharray="200px"
                strokeDashoffset="200px"
              />
            </svg>